<svg width="64" height="36" viewBox="0 0 64 36" fill="none" xmlns="http://www.w3.org/2000/svg">
<path d="M26.0874 7.17515C25.9168 7.00448 25.7943 6.77815 25.7523 6.52215C25.3862 4.43204 23.7401 2.78594 21.65 2.41986C20.9859 2.30484 20.5406 1.67657 20.6569 1.01244C20.7731 0.348308 21.4063 -0.09692 22.0643 0.0180973C25.1611 0.561029 27.6099 3.00484 28.1466 6.10165C28.2629 6.76578 27.8176 7.39405 27.1535 7.51031C26.7577 7.58327 26.3608 7.44229 26.0874 7.17515Z" fill="#0066FF"/>
<path d="M38.6103 7.17515C38.781 7.00448 38.9022 6.77815 38.9455 6.52215C39.3115 4.43204 40.9564 2.78594 43.0465 2.41986C43.7106 2.30484 44.1559 1.67657 44.0396 1.01244C43.9246 0.348308 43.2901 -0.09692 42.6322 0.0180973C39.5366 0.561029 37.0866 3.00484 36.5499 6.10165C36.4349 6.76578 36.8788 7.39405 37.5442 7.51031C37.9462 7.58327 38.3357 7.44229 38.6103 7.17515Z" fill="#0066FF"/>
<path d="M24.7032 8.52815C24.7032 8.67161 24.6896 8.81384 24.6612 8.95483C24.6328 9.09582 24.5919 9.23186 24.5363 9.36543C24.4819 9.49776 24.4138 9.62391 24.3347 9.74387C24.2543 9.8626 24.164 9.97391 24.0626 10.0753C23.9612 10.1767 23.8499 10.267 23.7312 10.3474C23.6112 10.4266 23.485 10.4946 23.3527 10.549C23.2204 10.6046 23.0831 10.6455 22.9421 10.6739C22.8011 10.7024 22.6589 10.716 22.5154 10.716C22.372 10.716 22.2298 10.7024 22.0888 10.6739C21.9478 10.6455 21.8105 10.6046 21.6782 10.549C21.5458 10.4946 21.4197 10.4266 21.2997 10.3474C21.181 10.267 21.0697 10.1767 20.9683 10.0753C20.8669 9.97391 20.7766 9.8626 20.6962 9.74387C20.617 9.62391 20.549 9.49776 20.4946 9.36543C20.4389 9.23186 20.3981 9.09582 20.3697 8.95483C20.3412 8.81384 20.3276 8.67161 20.3276 8.52815C20.3276 8.38345 20.3412 8.24123 20.3697 8.10024C20.3981 7.96049 20.4389 7.82321 20.4946 7.69087C20.549 7.55731 20.617 7.43116 20.6962 7.31243C20.7766 7.19247 20.8669 7.0824 20.9683 6.98098C21.0697 6.87833 21.181 6.78805 21.2997 6.7089C21.4197 6.62851 21.5458 6.56049 21.6782 6.50607C21.8105 6.45166 21.9478 6.40961 22.0888 6.38116C22.2298 6.35395 22.372 6.33911 22.5154 6.33911C22.6589 6.33911 22.8011 6.35395 22.9421 6.38116C23.0831 6.40961 23.2204 6.45166 23.3527 6.50607C23.485 6.56049 23.6112 6.62851 23.7312 6.7089C23.8499 6.78805 23.9612 6.87833 24.0626 6.98098C24.164 7.0824 24.2543 7.19247 24.3347 7.31243C24.4138 7.43116 24.4819 7.55731 24.5363 7.69087C24.5919 7.82321 24.6328 7.96049 24.6612 8.10024C24.6896 8.24123 24.7032 8.38345 24.7032 8.52815Z" fill="#0066FF"/>
<path d="M44.3688 8.52815C44.3688 8.67161 44.3552 8.81384 44.3267 8.95483C44.2995 9.09582 44.2575 9.23186 44.203 9.36543C44.1474 9.49776 44.0806 9.62391 44.0002 9.74387C43.9211 9.8626 43.8296 9.97391 43.7281 10.0753C43.6267 10.1767 43.5167 10.267 43.3967 10.3474C43.278 10.4266 43.1518 10.4946 43.0182 10.549C42.8859 10.6046 42.7486 10.6455 42.6089 10.6739C42.4679 10.7024 42.3257 10.716 42.181 10.716C42.0375 10.716 41.8953 10.7024 41.7543 10.6739C41.6133 10.6455 41.4773 10.6046 41.3437 10.549C41.2114 10.4946 41.0852 10.4266 40.9665 10.3474C40.8465 10.267 40.7364 10.1767 40.635 10.0753C40.5324 9.97391 40.4421 9.8626 40.363 9.74387C40.2826 9.62391 40.2158 9.49776 40.1601 9.36543C40.1057 9.23186 40.0637 9.09582 40.0352 8.95483C40.008 8.81384 39.9932 8.67161 39.9932 8.52815C39.9932 8.38345 40.008 8.24123 40.0352 8.10024C40.0637 7.96049 40.1057 7.82321 40.1601 7.69087C40.2158 7.55731 40.2826 7.43116 40.363 7.31243C40.4421 7.19247 40.5324 7.0824 40.635 6.98098C40.7364 6.87833 40.8465 6.78805 40.9665 6.7089C41.0852 6.62851 41.2114 6.56049 41.3437 6.50607C41.4773 6.45166 41.6133 6.40961 41.7543 6.38116C41.8953 6.35395 42.0375 6.33911 42.181 6.33911C42.3257 6.33911 42.4679 6.35395 42.6089 6.38116C42.7486 6.40961 42.8859 6.45166 43.0182 6.50607C43.1518 6.56049 43.278 6.62851 43.3967 6.7089C43.5167 6.78805 43.6267 6.87833 43.7281 6.98098C43.8296 7.0824 43.9211 7.19247 44.0002 7.31243C44.0806 7.43116 44.1474 7.55731 44.203 7.69087C44.2575 7.82321 44.2995 7.96049 44.3267 8.10024C44.3552 8.24123 44.3688 8.38345 44.3688 8.52815Z" fill="#0066FF"/>
<mask id="mask0_314_386" style="mask-type:luminance" maskUnits="userSpaceOnUse" x="6" y="13" width="53" height="24">
<path d="M6 13.8376H58.7114V36.0001H6V13.8376Z" fill="white"/>
</mask>
<g mask="url(#mask0_314_386)">
<path d="M50.0925 35.8528C48.5688 35.8528 47.0451 35.4508 45.6736 34.6457L43.0962 33.1344C36.4648 29.2399 28.2256 29.2399 21.6016 33.1344L19.0229 34.6457C16.3911 36.1941 13.204 36.2547 10.4919 34.8226C7.88975 33.451 6.22014 30.9033 6.01855 28.0143C6.00618 27.8016 6 27.5938 6 27.3798C6 23.8267 8.07279 20.548 11.2722 19.012L11.5827 18.8648C24.7825 12.5451 39.9202 12.5451 53.1213 18.8648L53.4317 19.012C56.6312 20.5419 58.7027 23.8267 58.7027 27.3798C58.7027 27.5938 58.6965 27.8065 58.6792 28.0143C58.4838 30.9033 56.8142 33.451 54.2121 34.8226C52.9073 35.5114 51.4999 35.8528 50.0925 35.8528ZM32.3514 27.7706C36.4957 27.7706 40.64 28.8553 44.3329 31.0258L46.9103 32.5371C48.8063 33.6526 51.1091 33.6947 53.0718 32.6595C54.9492 31.6652 56.1068 29.9102 56.2465 27.8374C56.2589 27.6791 56.2651 27.527 56.2651 27.3687C56.2651 24.753 54.7414 22.3277 52.3767 21.1998L52.0663 21.0539C39.5368 15.0557 25.1671 15.0557 12.6364 21.0539L12.326 21.1998C9.9613 22.3401 8.43763 24.7653 8.43763 27.3798C8.43763 27.5394 8.44381 27.6977 8.45618 27.8498C8.59593 29.9226 9.75476 31.6775 11.6309 32.6706C13.5936 33.707 15.8977 33.6588 17.7924 32.5494L20.3698 31.0381C24.0639 28.8614 28.207 27.7706 32.3514 27.7706Z" fill="#0066FF"/>
</g>
</svg>
