<svg width="286" height="283" viewBox="0 0 286 283" fill="none" xmlns="http://www.w3.org/2000/svg">
<mask id="mask0_350_39" style="mask-type:luminance" maskUnits="userSpaceOnUse" x="9" y="14" width="277" height="269">
<path d="M9.3335 14.6458H285.334V283H9.3335V14.6458Z" fill="white"/>
</mask>
<g mask="url(#mask0_350_39)">
<path d="M230.318 282C222.849 282.922 215.151 283 207.526 283C192.594 283 177.729 283 162.797 283C136.542 283 110.208 283 83.9531 283C82.724 283 81.5677 283 80.3333 283C50.2292 283 9.73438 257.302 9.73438 227.51L22.1302 76.4791C22.1302 46.6926 46.7656 22.2291 76.7917 22.2291L229.161 14.8958C259.266 14.8958 283.599 40.5155 285.135 92.302C285.135 114.297 285.135 136.292 285.135 158.208C285.135 171.948 285.135 185.76 285.135 199.5C285.135 220.182 286.828 239.781 274.052 257.458C269.12 264.323 262.656 269.88 255.339 274.125C247.49 278.755 239.016 280.917 230.318 282Z" fill="#0066FF"/>
</g>
<path d="M202.985 265.635H66.9377C32.8335 265.635 4.88037 237.625 4.88037 203.432V67.0676C4.88037 32.8801 32.8335 4.8645 66.9377 4.8645H203.063C237.172 4.8645 265.12 32.8801 265.12 67.0676V203.51C265.042 237.625 237.172 265.635 202.985 265.635Z" fill="white"/>
<mask id="mask1_350_39" style="mask-type:luminance" maskUnits="userSpaceOnUse" x="0" y="0" width="271" height="271">
<path d="M0 0H270.667V270.646H0V0Z" fill="white"/>
</mask>
<g mask="url(#mask1_350_39)">
<path d="M202.984 270.5H66.9375C30.0573 270.5 0.03125 240.401 0.03125 203.432V67.0677C0.03125 30.099 30.0573 0 66.9375 0H203.063C239.943 0 269.969 30.099 269.969 67.0677V203.51C269.891 240.401 239.865 270.5 202.984 270.5ZM66.9375 9.72396C35.4479 9.72396 9.8125 35.4271 9.8125 66.9896V203.432C9.8125 235 35.4479 260.698 66.9375 260.698H203.063C234.552 260.698 260.193 235 260.193 203.432V67.0677C260.193 35.5 234.552 9.80208 203.063 9.80208H66.9375V9.72396Z" fill="#0066FF"/>
</g>
<path d="M176.5 151.417C176.5 154.661 175.729 158.13 174.115 161.917C172.495 165.698 170.032 169.323 166.646 172.948C163.256 176.578 158.87 179.51 153.636 181.75C148.323 183.984 142.162 185.146 135.157 185.146C129.844 185.146 124.99 184.604 120.604 183.599C116.214 182.599 112.287 180.974 108.745 178.891C105.203 176.729 101.896 173.953 98.9691 170.401C96.2712 167.24 94.042 163.687 92.1149 159.755C90.266 155.818 88.8076 151.651 87.8805 147.172C86.9587 142.698 86.4951 137.99 86.4951 132.974C86.4951 124.792 87.6514 117.536 90.0368 111.057C92.4222 104.651 95.8128 99.0937 100.198 94.5416C104.589 89.9895 109.745 86.4375 115.677 84.0468C121.604 81.651 127.917 80.4166 134.615 80.4166C142.776 80.4166 150.094 82.0364 156.479 85.3541C162.87 88.5989 167.724 92.6875 171.188 97.4739C174.573 102.26 176.271 106.812 176.271 111.135C176.271 113.448 175.422 115.531 173.808 117.385C172.188 119.161 170.188 120.083 167.802 120.083C165.183 120.083 163.256 119.469 161.948 118.234C160.641 117 159.177 114.839 157.558 111.828C154.865 106.812 151.787 103.031 148.167 100.562C144.547 98.0885 140.084 96.8541 134.849 96.8541C126.453 96.8541 119.756 100.021 114.75 106.427C109.745 112.833 107.282 121.937 107.282 133.667C107.282 141.542 108.36 148.099 110.594 153.349C112.828 158.594 115.907 162.453 119.985 165.078C123.99 167.625 128.766 168.937 134.151 168.937C140.006 168.937 145.011 167.469 149.089 164.536C153.172 161.604 156.25 157.359 158.25 151.651C159.099 148.948 160.177 146.786 161.485 145.089C162.797 143.391 164.875 142.542 167.724 142.542C170.188 142.542 172.266 143.391 173.959 145.089C175.578 146.786 176.5 148.87 176.5 151.417Z" fill="#0066FF"/>
</svg>
