<svg width="63" height="28" viewBox="0 0 63 28" fill="none" xmlns="http://www.w3.org/2000/svg">
<mask id="mask0_314_194" style="mask-type:luminance" maskUnits="userSpaceOnUse" x="16" y="2" width="7" height="7">
<path d="M16.2646 2.73169H22.0695V8.33249H16.2646V2.73169Z" fill="white"/>
</mask>
<g mask="url(#mask0_314_194)">
<path d="M22.064 5.44739C22.064 5.62613 22.0467 5.80219 22.012 5.97693C21.9773 6.15166 21.9253 6.32106 21.8559 6.48645C21.7879 6.65052 21.7039 6.80791 21.6038 6.95597C21.5038 7.10402 21.3904 7.24141 21.2637 7.36679C21.137 7.4935 20.9996 7.60555 20.8502 7.70425C20.7008 7.80429 20.5434 7.88699 20.378 7.95501C20.2126 8.02437 20.0419 8.07506 19.8658 8.10974C19.6898 8.14442 19.5124 8.16176 19.3323 8.16176C19.1536 8.16176 18.9762 8.14442 18.8001 8.10974C18.624 8.07506 18.4533 8.02437 18.2866 7.95501C18.1212 7.88699 17.9638 7.80429 17.8144 7.70425C17.6663 7.60555 17.5276 7.4935 17.4009 7.36679C17.2742 7.24141 17.1608 7.10402 17.0608 6.95597C16.9621 6.80791 16.8767 6.65052 16.8087 6.48645C16.7406 6.32106 16.6886 6.15166 16.6526 5.97693C16.6179 5.80219 16.6006 5.62613 16.6006 5.44739C16.6006 5.26866 16.6179 5.09259 16.6526 4.91786C16.6886 4.74312 16.7406 4.57239 16.8087 4.40833C16.8767 4.24293 16.9621 4.08687 17.0608 3.93882C17.1608 3.79076 17.2742 3.65337 17.4009 3.52799C17.5276 3.40128 17.6663 3.28924 17.8144 3.1892C17.9638 3.09049 18.1212 3.00646 18.2866 2.93843C18.4533 2.87041 18.624 2.81972 18.8001 2.78504C18.9762 2.74903 19.1536 2.73169 19.3323 2.73169C19.5124 2.73169 19.6898 2.74903 19.8658 2.78504C20.0419 2.81972 20.2126 2.87041 20.378 2.93843C20.5434 3.00646 20.7008 3.09049 20.8502 3.1892C20.9996 3.28924 21.137 3.40128 21.2637 3.52799C21.3904 3.65337 21.5038 3.79076 21.6038 3.93882C21.7039 4.08687 21.7879 4.24293 21.8559 4.40833C21.9253 4.57239 21.9773 4.74312 22.012 4.91786C22.0467 5.09259 22.064 5.26866 22.064 5.44739Z" fill="#0066FF"/>
</g>
<mask id="mask1_314_194" style="mask-type:luminance" maskUnits="userSpaceOnUse" x="40" y="2" width="7" height="7">
<path d="M40.8501 2.73169H46.655V8.33249H40.8501V2.73169Z" fill="white"/>
</mask>
<g mask="url(#mask1_314_194)">
<path d="M46.6202 5.44739C46.6202 5.62613 46.6028 5.80219 46.5681 5.97693C46.5335 6.15166 46.4814 6.32106 46.4121 6.48645C46.344 6.65052 46.26 6.80791 46.16 6.95597C46.0599 7.10402 45.9466 7.24141 45.8198 7.36679C45.6931 7.4935 45.5557 7.60555 45.4064 7.70425C45.257 7.80429 45.0996 7.88699 44.9342 7.95501C44.7688 8.02437 44.598 8.07506 44.422 8.10974C44.2459 8.14442 44.0685 8.16176 43.8884 8.16176C43.7097 8.16176 43.531 8.14442 43.3562 8.10974C43.1802 8.07506 43.0094 8.02437 42.8427 7.95501C42.6773 7.88699 42.5199 7.80429 42.3705 7.70425C42.2211 7.60555 42.0838 7.4935 41.957 7.36679C41.8303 7.24141 41.717 7.10402 41.6169 6.95597C41.5169 6.80791 41.4328 6.65052 41.3648 6.48645C41.2955 6.32106 41.2448 6.15166 41.2088 5.97693C41.1741 5.80219 41.1567 5.62613 41.1567 5.44739C41.1567 5.26866 41.1741 5.09259 41.2088 4.91786C41.2448 4.74312 41.2955 4.57239 41.3648 4.40833C41.4328 4.24293 41.5169 4.08687 41.6169 3.93882C41.717 3.79076 41.8303 3.65337 41.957 3.52799C42.0838 3.40128 42.2211 3.28924 42.3705 3.1892C42.5199 3.09049 42.6773 3.00646 42.8427 2.93843C43.0094 2.87041 43.1802 2.81972 43.3562 2.78504C43.531 2.74903 43.7097 2.73169 43.8884 2.73169C44.0685 2.73169 44.2459 2.74903 44.422 2.78504C44.598 2.81972 44.7688 2.87041 44.9342 2.93843C45.0996 3.00646 45.257 3.09049 45.4064 3.1892C45.5557 3.28924 45.6931 3.40128 45.8198 3.52799C45.9466 3.65337 46.0599 3.79076 46.16 3.93882C46.26 4.08687 46.344 4.24293 46.4121 4.40833C46.4814 4.57239 46.5335 4.74312 46.5681 4.91786C46.6028 5.09259 46.6202 5.26866 46.6202 5.44739Z" fill="#0066FF"/>
</g>
<mask id="mask2_314_194" style="mask-type:luminance" maskUnits="userSpaceOnUse" x="0" y="19" width="63" height="7">
<path d="M0 19.9423H63V25.2683H0V19.9423Z" fill="white"/>
</mask>
<g mask="url(#mask2_314_194)">
<path d="M61.3529 25.1709C61.2916 25.1709 61.2382 25.1709 61.1782 25.1629L55.5467 24.5347C39.582 22.758 23.3891 22.758 7.43238 24.5347L1.8009 25.1629C0.971253 25.2616 0.210963 24.656 0.118928 23.8317C0.0282271 23.0074 0.628456 22.2511 1.45811 22.1604L7.08958 21.5335C23.2824 19.7248 39.6967 19.7248 55.8895 21.5335L61.5197 22.1604C62.3573 22.2511 62.9589 22.9994 62.8602 23.8317C62.7761 24.596 62.1132 25.1709 61.3529 25.1709Z" fill="#0066FF"/>
</g>
</svg>
