<svg width="128" height="127" viewBox="0 0 128 127" fill="none" xmlns="http://www.w3.org/2000/svg">
<path d="M127.739 57.727C127.854 58.9975 127.932 60.2788 127.971 61.5698L127.471 61.5849C127.49 62.2209 127.5 62.8593 127.5 63.5C127.5 64.1407 127.49 64.7791 127.471 65.4151L127.971 65.4302C127.932 66.7212 127.854 68.0025 127.739 69.273L127.241 69.2278C127.125 70.5027 126.971 71.7666 126.78 73.0184L127.274 73.0939C127.079 74.3697 126.846 75.6331 126.576 76.8829L126.087 76.7772C125.817 78.0275 125.509 79.264 125.165 80.4856L125.647 80.6211C125.298 81.8611 124.912 83.0859 124.49 84.2941L124.018 84.1293C123.597 85.3349 123.14 86.5239 122.648 87.6951L123.11 87.8885C122.612 89.0752 122.078 90.2436 121.511 91.3926L121.063 91.1712C120.498 92.3156 119.899 93.4405 119.268 94.5446L119.702 94.7928C119.064 95.9088 118.392 97.0037 117.689 98.0763L117.271 97.8022C116.572 98.8684 115.842 99.9123 115.081 100.933L115.482 101.232C114.714 102.261 113.915 103.267 113.087 104.248L112.705 103.926C111.883 104.899 111.032 105.848 110.153 106.77L110.515 107.115C109.63 108.044 108.716 108.947 107.776 109.822L107.436 109.456C106.503 110.324 105.545 111.164 104.561 111.975L104.879 112.36C103.89 113.177 102.875 113.964 101.836 114.72L101.542 114.316C100.513 115.065 99.4612 115.784 98.387 116.472L98.6566 116.893C97.577 117.584 96.4752 118.244 95.3523 118.872L95.1084 118.435C93.9983 119.055 92.8674 119.643 91.7172 120.198L91.9343 120.648C90.7808 121.204 89.6078 121.727 88.4168 122.215L88.2272 121.752C87.0522 122.234 85.8595 122.682 84.6502 123.094L84.8116 123.567C83.6006 123.98 82.3733 124.358 81.1307 124.7L80.9981 124.218C79.7745 124.554 78.536 124.855 77.2839 125.119L77.3872 125.609C76.1365 125.873 74.8723 126.101 73.5958 126.291L73.522 125.796C72.2694 125.983 71.0048 126.134 69.7293 126.247L69.7735 126.745C68.5028 126.858 67.2213 126.934 65.9302 126.972L65.9155 126.472C65.2794 126.491 64.6408 126.5 64 126.5C63.3592 126.5 62.7206 126.491 62.0844 126.472L62.0698 126.972C60.7787 126.934 59.4972 126.858 58.2265 126.745L58.2706 126.247C56.9951 126.134 55.7305 125.983 54.478 125.796L54.4042 126.291C53.1276 126.101 51.8634 125.873 50.6128 125.609L50.7161 125.119C49.4639 124.855 48.2255 124.554 47.0018 124.218L46.8693 124.7C45.6267 124.358 44.3993 123.98 43.1884 123.567L43.3498 123.094C42.1405 122.682 40.9478 122.234 39.7728 121.752L39.5832 122.215C38.3922 121.727 37.2192 121.204 36.0657 120.648L36.2828 120.198C35.1326 119.643 34.0017 119.055 32.8916 118.435L32.6477 118.872C31.5248 118.244 30.4229 117.584 29.3434 116.893L29.613 116.472C28.5388 115.784 27.4868 115.065 26.4584 114.316L26.164 114.72C25.1252 113.964 24.1103 113.177 23.1206 112.36L23.4387 111.975C22.4551 111.164 21.4966 110.324 20.5644 109.456L20.2238 109.822C19.2836 108.947 18.3701 108.044 17.4846 107.115L17.8466 106.77C16.9678 105.848 16.1169 104.899 15.295 103.926L14.9129 104.248C14.085 103.267 13.2864 102.261 12.5185 101.232L12.9193 100.933C12.1584 99.9123 11.4278 98.8684 10.7289 97.8022L10.3107 98.0763C9.60762 97.0037 8.9363 95.9088 8.29806 94.7928L8.7321 94.5446C8.10065 93.4405 7.50186 92.3156 6.93702 91.1712L6.48866 91.3925C5.92156 90.2436 5.3884 89.0752 4.89048 87.8885L5.35154 87.6951C4.86012 86.5239 4.40331 85.3349 3.98237 84.1293L3.51032 84.2941C3.08848 83.0859 2.70237 81.8611 2.35326 80.621L2.83455 80.4855C2.49065 79.264 2.18293 78.0275 1.9126 76.7772L1.42389 76.8828C1.15369 75.6331 0.920552 74.3697 0.725678 73.0938L1.21995 73.0183C1.02875 71.7666 0.874677 70.5027 0.75888 69.2278L0.26093 69.273C0.145529 68.0025 0.0678468 66.7212 0.0290015 65.4302L0.528775 65.4151C0.509637 64.7791 0.5 64.1407 0.5 63.5C0.5 62.8593 0.509638 62.2209 0.528776 61.5849L0.0290019 61.5698C0.0678474 60.2788 0.14553 58.9975 0.260931 57.727L0.758881 57.7722C0.874678 56.4973 1.02875 55.2334 1.21995 53.9816L0.725681 53.9061C0.920555 52.6303 1.15369 51.3669 1.4239 50.1172L1.9126 50.2228C2.18293 48.9725 2.49065 47.736 2.83455 46.5144L2.35326 46.3789C2.70238 45.1389 3.08848 43.9141 3.51032 42.7059L3.98238 42.8707C4.40331 41.6651 4.86012 40.4761 5.35154 39.3049L4.89048 39.1115C5.3884 37.9248 5.92156 36.7564 6.48867 35.6074L6.93702 35.8287C7.50187 34.6844 8.10066 33.5595 8.7321 32.4554L8.29807 32.2072C8.93631 31.0912 9.60763 29.9963 10.3107 28.9237L10.7289 29.1978C11.4278 28.1316 12.1584 27.0877 12.9193 26.0673L12.5185 25.7684C13.2864 24.7386 14.085 23.7327 14.9129 22.7519L15.295 23.0744C16.1169 22.1008 16.9679 21.1522 17.8466 20.2299L17.4846 19.885C18.3701 18.9557 19.2836 18.0528 20.2238 17.1778L20.5644 17.5438C21.4966 16.6763 22.4551 15.8363 23.4387 15.0253L23.1206 14.6395C24.1103 13.8235 25.1253 13.0364 26.164 12.2798L26.4584 12.6839C27.4868 11.9348 28.5388 11.2157 29.613 10.5279L29.3434 10.1068C30.423 9.41554 31.5248 8.75564 32.6477 8.12839L32.8916 8.5649C34.0017 7.94476 35.1326 7.3568 36.2828 6.80228L36.0657 6.35188C37.2192 5.79576 38.3922 5.27302 39.5832 4.7849L39.7728 5.24756C40.9478 4.76601 42.1405 4.31843 43.3498 3.90607L43.1884 3.43283C44.3994 3.01989 45.6267 2.64198 46.8693 2.30032L47.0019 2.78243C48.2255 2.44598 49.4639 2.14497 50.7161 1.88057L50.6128 1.39136C51.8635 1.12727 53.1277 0.899423 54.4042 0.708988L54.478 1.20352C55.7306 1.01665 56.9952 0.866087 58.2707 0.752933L58.2265 0.254889C59.4972 0.142155 60.7787 0.0662728 62.0698 0.0283287L62.0845 0.528113C62.7206 0.509415 63.3592 0.5 64 0.5C64.6408 0.5 65.2794 0.509415 65.9156 0.528113L65.9303 0.0283291C67.2213 0.0662735 68.5028 0.142156 69.7735 0.254891L69.7294 0.752935C71.0049 0.866089 72.2695 1.01666 73.522 1.20352L73.5958 0.708991C74.8724 0.899426 76.1366 1.12727 77.3872 1.39136L77.2839 1.88057C78.5361 2.14497 79.7745 2.44599 80.9982 2.78243L81.1307 2.30033C82.3733 2.64198 83.6007 3.01989 84.8116 3.43284L84.6502 3.90608C85.8595 4.31844 87.0522 4.76601 88.2272 5.24756L88.4168 4.78491C89.6078 5.27302 90.7808 5.79577 91.9343 6.35189L91.7172 6.80228C92.8674 7.3568 93.9983 7.94477 95.1084 8.56491L95.3523 8.12839C96.4752 8.75564 97.5771 9.41555 98.6566 10.1068L98.387 10.5279C99.4612 11.2157 100.513 11.9348 101.542 12.6839L101.836 12.2798C102.875 13.0364 103.89 13.8235 104.879 14.6396L104.561 15.0253C105.545 15.8364 106.503 16.6763 107.436 17.5438L107.776 17.1778C108.716 18.0528 109.63 18.9557 110.515 19.885L110.153 20.23C111.032 21.1522 111.883 22.1009 112.705 23.0745L113.087 22.7519C113.915 23.7327 114.714 24.7386 115.482 25.7684L115.081 26.0673C115.842 27.0877 116.572 28.1316 117.271 29.1978L117.689 28.9237C118.392 29.9963 119.064 31.0912 119.702 32.2072L119.268 32.4554C119.899 33.5595 120.498 34.6844 121.063 35.8288L121.511 35.6075C122.078 36.7564 122.612 37.9248 123.11 39.1115L122.648 39.3049C123.14 40.4761 123.597 41.6651 124.018 42.8707L124.49 42.7059C124.912 43.9141 125.298 45.1389 125.647 46.379L125.165 46.5145C125.509 47.736 125.817 48.9725 126.087 50.2228L126.576 50.1172C126.846 51.3669 127.079 52.6303 127.274 53.9062L126.78 53.9817C126.971 55.2334 127.125 56.4973 127.241 57.7722L127.739 57.727Z" stroke="black" stroke-dasharray="4 4"/>
<path d="M40.5 52.25L47.8438 52.25L47.8438 59.5937L40.5 59.5938L40.5 52.25ZM78.6875 52.25L86.0312 52.25L86.0313 59.5937L78.6875 59.5937L78.6875 52.25ZM59.5938 73.3537C59.5936 73.2676 59.6056 73.1819 59.6294 73.0991L65.4688 52.6614V47.8437L59.5938 47.8437L59.5938 51.8386L53.9806 71.4848C53.6913 72.4971 53.6409 73.5629 53.8335 74.598C54.0261 75.6332 54.4564 76.6095 55.0904 77.4501C55.7245 78.2907 56.545 78.9726 57.4874 79.4422C58.4298 79.9118 59.4684 80.1562 60.5213 80.1562L71.3438 80.1562L71.3438 74.2812L60.5213 74.2812C60.2753 74.281 60.0396 74.1832 59.8657 74.0093C59.6918 73.8354 59.594 73.5997 59.5938 73.3537Z" fill="#969696"/>
</svg>
