<svg width="128" height="127" viewBox="0 0 128 127" fill="none" xmlns="http://www.w3.org/2000/svg">
<path d="M127.31 54.1433C127.615 56.189 127.821 58.2664 127.924 60.3707L125.427 60.4928C125.475 61.4889 125.5 62.4915 125.5 63.5C125.5 64.5085 125.475 65.5111 125.427 66.5072L127.924 66.6293C127.821 68.7336 127.615 70.8111 127.31 72.8567L124.837 72.4887C124.54 74.4856 124.145 76.4508 123.658 78.3794L126.082 78.9918C125.568 81.0265 124.955 83.0222 124.248 84.9737L121.897 84.1225C121.212 86.014 120.436 87.8624 119.573 89.6623L121.827 90.7431C120.923 92.6298 119.927 94.4653 118.846 96.2439L116.71 94.9455C115.667 96.6611 114.542 98.3217 113.339 99.9221L115.337 101.424C114.083 103.093 112.748 104.699 111.337 106.236L109.495 104.546C108.14 106.022 106.713 107.433 105.219 108.772L106.887 110.634C105.335 112.025 103.714 113.342 102.03 114.578L100.551 112.563C98.9377 113.747 97.2643 114.855 95.536 115.881L96.8122 118.031C95.0237 119.092 93.1786 120.07 91.2824 120.958L90.2223 118.694C88.4145 119.54 86.5585 120.302 84.6595 120.974L85.4931 123.33C83.5373 124.022 81.5376 124.622 79.4992 125.125L78.9002 122.698C76.9679 123.175 74.9992 123.561 72.9988 123.852L73.3585 126.326C71.312 126.623 69.2341 126.825 67.1295 126.925L67.0102 124.428C66.013 124.476 65.0094 124.5 64 124.5C62.9905 124.5 61.987 124.476 60.9898 124.428L60.8705 126.925C58.7659 126.825 56.688 126.623 54.6415 126.326L55.0011 123.852C53.0008 123.561 51.0321 123.175 49.0997 122.698L48.5007 125.125C46.4624 124.622 44.4627 124.022 42.5069 123.33L43.3405 120.974C41.4415 120.302 39.5855 119.54 37.7777 118.694L36.7176 120.958C34.8214 120.07 32.9763 119.092 31.1878 118.031L32.464 115.881C30.7357 114.855 29.0623 113.747 27.4494 112.563L25.9698 114.578C24.2856 113.342 22.6646 112.025 21.1127 110.634L22.7813 108.772C21.2872 107.433 19.8598 106.022 18.5045 104.546L16.6625 106.236C15.2523 104.699 13.9172 103.093 12.6627 101.424L14.6611 99.9221C13.4583 98.3218 12.3328 96.6611 11.2902 94.9455L9.15377 96.2439C8.07279 94.4653 7.07723 92.6298 6.17269 90.743L8.42702 89.6623C7.5641 87.8624 6.78755 86.014 6.10263 84.1225L3.75199 84.9737C3.04536 83.0222 2.43229 81.0265 1.91817 78.9918L4.34199 78.3794C3.85468 76.4508 3.45991 74.4856 3.16268 72.4886L0.689918 72.8567C0.385437 70.811 0.179277 68.7336 0.0763558 66.6293L2.57337 66.5072C2.52465 65.5111 2.5 64.5085 2.5 63.5C2.5 62.4915 2.52465 61.4889 2.57337 60.4928L0.0763566 60.3707C0.179279 58.2664 0.385439 56.189 0.68992 54.1433L3.16268 54.5113C3.45991 52.5144 3.85468 50.5492 4.34199 48.6206L1.91817 48.0082C2.43229 45.9735 3.04536 43.9778 3.752 42.0263L6.10263 42.8775C6.78756 40.986 7.56411 39.1376 8.42702 37.3377L6.1727 36.2569C7.07723 34.3702 8.07279 32.5347 9.15376 30.7561L11.2902 32.0545C12.3328 30.3389 13.4583 28.6783 14.6611 27.0779L12.6627 25.5758C13.9172 23.9068 15.2523 22.3011 16.6625 20.7642L18.5045 22.4545C19.8598 20.9775 21.2872 19.5667 22.7813 18.2276L21.1127 16.3659C22.6646 14.9749 24.2856 13.6583 25.9698 12.4218L27.4493 14.437C29.0623 13.2528 30.7357 12.145 32.464 11.119L31.1878 8.96928C32.9763 7.90756 34.8214 6.93001 36.7176 6.04214L37.7777 8.30622C39.5855 7.45972 41.4415 6.69808 43.3405 6.02646L42.5069 3.66952C44.4627 2.97781 46.4624 2.37783 48.5008 1.8748L49.0998 4.30198C51.0321 3.82509 53.0008 3.43883 55.0012 3.14803L54.6415 0.67404C56.688 0.376535 58.7659 0.175129 60.8705 0.0745862L60.9898 2.57174C61.987 2.5241 62.9906 2.5 64 2.5C65.0095 2.5 66.013 2.5241 67.0102 2.57174L67.1295 0.0745872C69.2341 0.17513 71.312 0.376537 73.3585 0.674042L72.9989 3.14804C74.9992 3.43883 76.9679 3.8251 78.9003 4.30198L79.4993 1.8748C81.5376 2.37784 83.5373 2.97782 85.4931 3.66953L84.6595 6.02646C86.5585 6.69808 88.4145 7.45972 90.2223 8.30622L91.2824 6.04214C93.1786 6.93001 95.0237 7.90756 96.8122 8.96928L95.536 11.119C97.2643 12.145 98.9377 13.2528 100.551 14.437L102.03 12.4218C103.714 13.6583 105.335 14.9749 106.887 16.3659L105.219 18.2276C106.713 19.5667 108.14 20.9775 109.495 22.4545L111.337 20.7642C112.748 22.3011 114.083 23.9068 115.337 25.5758L113.339 27.0779C114.542 28.6782 115.667 30.3389 116.71 32.0545L118.846 30.7561C119.927 32.5347 120.923 34.3702 121.827 36.257L119.573 37.3377C120.436 39.1376 121.212 40.986 121.897 42.8775L124.248 42.0263C124.955 43.9778 125.568 45.9735 126.082 48.0082L123.658 48.6206C124.145 50.5492 124.54 52.5144 124.837 54.5114L127.31 54.1433Z" stroke="#293A94" stroke-width="5" stroke-linejoin="round" stroke-dasharray="6 6"/>
<path d="M40.5 52.25L47.8438 52.25L47.8438 59.5937L40.5 59.5938L40.5 52.25ZM78.6875 52.25L86.0312 52.25L86.0313 59.5937L78.6875 59.5937L78.6875 52.25ZM59.5938 73.3537C59.5936 73.2676 59.6056 73.1819 59.6294 73.0991L65.4688 52.6614V47.8437L59.5938 47.8437L59.5938 51.8386L53.9806 71.4848C53.6913 72.4971 53.6409 73.5629 53.8335 74.598C54.0261 75.6332 54.4564 76.6095 55.0904 77.4501C55.7245 78.2907 56.545 78.9726 57.4874 79.4422C58.4298 79.9118 59.4684 80.1562 60.5213 80.1562L71.3438 80.1562L71.3438 74.2812L60.5213 74.2812C60.2753 74.281 60.0396 74.1832 59.8657 74.0093C59.6918 73.8354 59.594 73.5997 59.5938 73.3537Z" fill="#293A94"/>
</svg>
