<svg width="63" height="28" viewBox="0 0 63 28" fill="none" xmlns="http://www.w3.org/2000/svg">
<mask id="mask0_314_115" style="mask-type:luminance" maskUnits="userSpaceOnUse" x="16" y="0" width="7" height="6">
<path d="M16.5183 0H22.2805V5.54319H16.5183V0Z" fill="white"/>
</mask>
<g mask="url(#mask0_314_115)">
<path d="M22.0179 2.76172C22.0179 2.94249 22.0014 3.12175 21.9654 3.29948C21.9309 3.47874 21.8784 3.65039 21.8108 3.81749C21.7418 3.98611 21.6578 4.14562 21.5587 4.29601C21.4582 4.4464 21.3457 4.58616 21.2181 4.71376C21.0921 4.84289 20.954 4.95682 20.8055 5.05708C20.6554 5.15886 20.4993 5.24393 20.3328 5.31229C20.1677 5.38217 19.9966 5.43382 19.8211 5.47027C19.6455 5.50521 19.4684 5.52344 19.2884 5.52344C19.1098 5.52344 18.9312 5.50521 18.7557 5.47027C18.5801 5.43382 18.409 5.38217 18.244 5.31229C18.0789 5.24393 17.9214 5.15886 17.7713 5.05708C17.6227 4.95682 17.4847 4.84289 17.3586 4.71376C17.2311 4.58616 17.1186 4.4464 17.0195 4.29601C16.919 4.14562 16.8349 3.98611 16.7659 3.81749C16.6984 3.65039 16.6459 3.47874 16.6114 3.29948C16.5768 3.12175 16.5588 2.94249 16.5588 2.76172C16.5588 2.57943 16.5768 2.40018 16.6114 2.22244C16.6459 2.04471 16.6984 1.87153 16.7659 1.70443C16.8349 1.53733 16.919 1.37782 17.0195 1.22743C17.1186 1.07704 17.2311 0.937284 17.3586 0.80816C17.4847 0.680556 17.6227 0.566624 17.7713 0.464844C17.9214 0.364584 18.0789 0.279514 18.244 0.209636C18.409 0.141276 18.5801 0.0881078 18.7557 0.0531684C18.9312 0.0182295 19.1098 0 19.2884 0C19.4684 0 19.6455 0.0182295 19.8211 0.0531684C19.9966 0.0881078 20.1677 0.141276 20.3328 0.209636C20.4993 0.279514 20.6554 0.364584 20.8055 0.464844C20.954 0.566624 21.0921 0.680556 21.2181 0.80816C21.3457 0.937284 21.4582 1.07704 21.5587 1.22743C21.6578 1.37782 21.7418 1.53733 21.8108 1.70443C21.8784 1.87153 21.9309 2.04471 21.9654 2.22244C22.0014 2.40018 22.0179 2.57943 22.0179 2.76172Z" fill="#0066FF"/>
</g>
<mask id="mask1_314_115" style="mask-type:luminance" maskUnits="userSpaceOnUse" x="40" y="0" width="7" height="6">
<path d="M40.7195 0H46.8658V5.54319H40.7195V0Z" fill="white"/>
</mask>
<g mask="url(#mask1_314_115)">
<path d="M46.5553 2.76172C46.5553 2.94249 46.5373 3.12175 46.5028 3.29948C46.4682 3.47874 46.4157 3.65039 46.3467 3.81749C46.2792 3.98611 46.1951 4.14562 46.0946 4.29601C45.9956 4.4464 45.8815 4.58616 45.7555 4.71376C45.6294 4.84289 45.4914 4.95682 45.3413 5.05708C45.1928 5.15886 45.0352 5.24393 44.8701 5.31229C44.7051 5.38217 44.534 5.43382 44.3584 5.47027C44.1814 5.50521 44.0043 5.52344 43.8257 5.52344C43.6457 5.52344 43.4686 5.50521 43.293 5.47027C43.1175 5.43382 42.9464 5.38217 42.7813 5.31229C42.6148 5.24393 42.4572 5.15886 42.3087 5.05708C42.1601 4.95682 42.022 4.84289 41.8945 4.71376C41.7684 4.58616 41.6559 4.4464 41.5554 4.29601C41.4563 4.14562 41.3723 3.98611 41.3033 3.81749C41.2342 3.65039 41.1832 3.47874 41.1487 3.29948C41.1127 3.12175 41.0962 2.94249 41.0962 2.76172C41.0962 2.57943 41.1127 2.40018 41.1487 2.22244C41.1832 2.04471 41.2342 1.87153 41.3033 1.70443C41.3723 1.53733 41.4563 1.37782 41.5554 1.22743C41.6559 1.07704 41.7684 0.937284 41.8945 0.80816C42.022 0.680556 42.1601 0.566624 42.3087 0.464844C42.4572 0.364584 42.6148 0.279514 42.7813 0.209636C42.9464 0.141276 43.1175 0.0881078 43.293 0.0531684C43.4686 0.0182295 43.6457 0 43.8257 0C44.0043 0 44.1814 0.0182295 44.3584 0.0531684C44.534 0.0881078 44.7051 0.141276 44.8701 0.209636C45.0352 0.279514 45.1928 0.364584 45.3413 0.464844C45.4914 0.566624 45.6294 0.680556 45.7555 0.80816C45.8815 0.937284 45.9956 1.07704 46.0946 1.22743C46.1951 1.37782 46.2792 1.53733 46.3467 1.70443C46.4157 1.87153 46.4682 2.04471 46.5028 2.22244C46.5373 2.40018 46.5553 2.57943 46.5553 2.76172Z" fill="#0066FF"/>
</g>
<mask id="mask2_314_115" style="mask-type:luminance" maskUnits="userSpaceOnUse" x="0" y="19" width="63" height="9">
<path d="M0 19.5432H63V28H0V19.5432Z" fill="white"/>
</mask>
<g mask="url(#mask2_314_115)">
<path d="M31.4385 28.0303C21.1596 28.0303 10.8792 26.2697 1.09242 22.7378C0.301623 22.4461 -0.108033 21.5696 0.172574 20.7691C0.454682 19.9685 1.32952 19.5538 2.12032 19.8378C21.029 26.6616 41.8555 26.6616 60.7657 19.8378C61.5565 19.5538 62.4238 19.9685 62.7119 20.7691C62.994 21.5696 62.5828 22.4461 61.792 22.7378C51.9993 26.2621 41.7189 28.0303 31.4385 28.0303Z" fill="#0066FF"/>
</g>
</svg>
