<svg width="24" height="24" viewBox="0 0 24 24" fill="none" xmlns="http://www.w3.org/2000/svg">
<path fill-rule="evenodd" clip-rule="evenodd" d="M21 12C21 13.1819 20.7672 14.3522 20.3149 15.4442C19.8626 16.5361 19.1997 17.5282 18.364 18.364C17.5282 19.1997 16.5361 19.8626 15.4442 20.3149C14.3522 20.7672 13.1819 21 12 21C10.8181 21 9.64778 20.7672 8.55585 20.3149C7.46392 19.8626 6.47177 19.1997 5.63604 18.364C4.80031 17.5282 4.13738 16.5361 3.68508 15.4442C3.23279 14.3522 3 13.1819 3 12C3 9.61305 3.94821 7.32387 5.63604 5.63604C7.32387 3.94821 9.61305 3 12 3C14.3869 3 16.6761 3.94821 18.364 5.63604C20.0518 7.32387 21 9.61305 21 12ZM12 23C18.075 23 23 18.075 23 12C23 5.925 18.075 1 12 1C5.925 1 1 5.925 1 12C1 18.075 5.925 23 12 23ZM11.194 14H12.86V13.738C12.86 13.4487 12.9417 13.164 13.105 12.884C13.35 12.464 13.467 12.345 13.7 12.107C13.9333 11.869 14.1667 11.624 14.4 11.372C14.6333 11.12 14.8317 10.8213 14.995 10.476C15.1583 10.1307 15.24 9.762 15.24 9.37C15.24 8.53 14.9437 7.88367 14.351 7.431C13.7577 6.97767 13.0227 6.75133 12.146 6.752C11.1287 6.752 10.3167 7.018 9.71 7.55C9.10333 8.082 8.8 8.87533 8.8 9.93H10.522C10.522 9.41667 10.662 9.02233 10.942 8.747C11.222 8.47167 11.586 8.334 12.034 8.334C12.444 8.334 12.7683 8.43667 13.007 8.642C13.245 8.84733 13.364 9.15067 13.364 9.552C13.364 9.81333 13.2893 10.07 13.14 10.322C12.916 10.7 12.811 10.807 12.601 11.022C12.391 11.2367 12.1787 11.4607 11.964 11.694C11.7396 11.9415 11.5554 12.2225 11.418 12.527C11.268 12.849 11.1933 13.192 11.194 13.556V14ZM12 17.7C12.3183 17.7 12.6235 17.5736 12.8485 17.3485C13.0736 17.1235 13.2 16.8183 13.2 16.5C13.2 16.1817 13.0736 15.8765 12.8485 15.6515C12.6235 15.4264 12.3183 15.3 12 15.3C11.6817 15.3 11.3765 15.4264 11.1515 15.6515C10.9264 15.8765 10.8 16.1817 10.8 16.5C10.8 16.8183 10.9264 17.1235 11.1515 17.3485C11.3765 17.5736 11.6817 17.7 12 17.7Z" fill="#0066FF"/>
</svg>
