<svg width="69" height="26" viewBox="0 0 69 26" fill="none" xmlns="http://www.w3.org/2000/svg">
<mask id="mask0_314_367" style="mask-type:luminance" maskUnits="userSpaceOnUse" x="17" y="0" width="8" height="7">
<path d="M17.8745 0.5H24.3139V6.57836H17.8745V0.5Z" fill="white"/>
</mask>
<g mask="url(#mask0_314_367)">
<path d="M24.1776 3.45188C24.1776 3.64572 24.1583 3.83807 24.1199 4.02746C24.0829 4.21834 24.0252 4.40329 23.9512 4.58233C23.8772 4.76137 23.7855 4.93152 23.6775 5.0928C23.568 5.25409 23.4452 5.40205 23.3075 5.53966C23.1699 5.67726 23.019 5.79859 22.8577 5.90661C22.695 6.01462 22.5233 6.10488 22.3428 6.17886C22.1638 6.25432 21.9773 6.30907 21.7865 6.34754C21.5956 6.38601 21.4018 6.40377 21.2065 6.40377C21.0111 6.40377 20.8188 6.38601 20.6279 6.34754C20.4356 6.30907 20.2506 6.25432 20.0701 6.17886C19.8896 6.10488 19.7179 6.01462 19.5567 5.90661C19.3939 5.79859 19.2445 5.67726 19.1068 5.53966C18.9678 5.40205 18.8449 5.25409 18.7369 5.0928C18.6289 4.93152 18.5372 4.76137 18.4617 4.58233C18.3877 4.40329 18.3315 4.21834 18.293 4.02746C18.2546 3.83807 18.2368 3.64572 18.2368 3.45188C18.2368 3.25805 18.2546 3.0657 18.293 2.8763C18.3315 2.68543 18.3877 2.50195 18.4617 2.32292C18.5372 2.1424 18.6289 1.97372 18.7369 1.81244C18.8449 1.65116 18.9678 1.50172 19.1068 1.36411C19.2445 1.22798 19.3939 1.10517 19.5567 0.997159C19.7179 0.889146 19.8896 0.798888 20.0701 0.724905C20.2506 0.650923 20.4356 0.594697 20.6279 0.556226C20.8188 0.519235 21.0111 0.5 21.2065 0.5C21.4018 0.5 21.5956 0.519235 21.7865 0.556226C21.9773 0.594697 22.1638 0.650923 22.3428 0.724905C22.5233 0.798888 22.695 0.889146 22.8577 0.997159C23.019 1.10517 23.1699 1.22798 23.3075 1.36411C23.4452 1.50172 23.568 1.65116 23.6775 1.81244C23.7855 1.97372 23.8772 2.1424 23.9512 2.32292C24.0252 2.50195 24.0829 2.68543 24.1199 2.8763C24.1583 3.0657 24.1776 3.25805 24.1776 3.45188Z" fill="#0066FF"/>
</g>
<mask id="mask1_314_367" style="mask-type:luminance" maskUnits="userSpaceOnUse" x="44" y="0" width="8" height="7">
<path d="M44.7681 0.5H51.2075V6.57836H44.7681V0.5Z" fill="white"/>
</mask>
<g mask="url(#mask1_314_367)">
<path d="M50.8787 3.45188C50.8787 3.64572 50.861 3.83807 50.8225 4.02746C50.784 4.21834 50.7278 4.40329 50.6538 4.58233C50.5784 4.76137 50.4866 4.93152 50.3786 5.0928C50.2706 5.25409 50.1478 5.40205 50.0087 5.53966C49.8711 5.67726 49.7217 5.79859 49.5589 5.90661C49.3976 6.01462 49.226 6.10488 49.0455 6.17886C48.865 6.25432 48.68 6.30907 48.4876 6.34754C48.2968 6.38601 48.1044 6.40377 47.9091 6.40377C47.7138 6.40377 47.52 6.38601 47.3291 6.34754C47.1382 6.30907 46.9518 6.25432 46.7713 6.17886C46.5922 6.10488 46.4206 6.01462 46.2578 5.90661C46.0965 5.79859 45.9456 5.67726 45.808 5.53966C45.6704 5.40205 45.5476 5.25409 45.4381 5.0928C45.3301 4.93152 45.2384 4.76137 45.1644 4.58233C45.0889 4.40329 45.0327 4.21834 44.9957 4.02746C44.9572 3.83807 44.938 3.64572 44.938 3.45188C44.938 3.25805 44.9572 3.0657 44.9957 2.8763C45.0327 2.68543 45.0889 2.50195 45.1644 2.32292C45.2384 2.1424 45.3301 1.97372 45.4381 1.81244C45.5476 1.65116 45.6704 1.50172 45.808 1.36411C45.9456 1.22798 46.0965 1.10517 46.2578 0.997159C46.4206 0.889146 46.5922 0.798888 46.7713 0.724905C46.9518 0.650923 47.1382 0.594697 47.3291 0.556226C47.52 0.519235 47.7138 0.5 47.9091 0.5C48.1044 0.5 48.2968 0.519235 48.4876 0.556226C48.68 0.594697 48.865 0.650923 49.0455 0.724905C49.226 0.798888 49.3976 0.889146 49.5589 0.997159C49.7217 1.10517 49.8711 1.22798 50.0087 1.36411C50.1478 1.50172 50.2706 1.65116 50.3786 1.81244C50.4866 1.97372 50.5784 2.1424 50.6538 2.32292C50.7278 2.50195 50.784 2.68543 50.8225 2.8763C50.861 3.0657 50.8787 3.25805 50.8787 3.45188Z" fill="#0066FF"/>
</g>
<mask id="mask2_314_367" style="mask-type:luminance" maskUnits="userSpaceOnUse" x="0" y="16" width="69" height="10">
<path d="M0.0712891 16.048H68.6319V25.4999H0.0712891V16.048Z" fill="white"/>
</mask>
<g mask="url(#mask2_314_367)">
<path d="M34.4964 25.5073C31.1775 25.5073 27.8513 24.4464 25.0873 22.3246C20.8097 19.0442 14.9429 18.5012 10.1356 20.9441L2.71219 24.7097C1.90135 25.1211 0.901114 24.8 0.486815 23.9951C0.0725151 23.1887 0.395077 22.1944 1.20592 21.783L8.62928 18.0158C14.57 14.9974 21.8277 15.6721 27.107 19.7189C31.4172 23.0244 37.4586 23.0496 41.7939 19.7766L41.9671 19.6449C47.2805 15.6307 54.5292 15.0225 60.4448 18.0736L67.6521 21.7904C68.463 22.2106 68.7782 23.2049 68.355 24.0114C67.9333 24.8178 66.933 25.13 66.1222 24.7097L58.9149 20.9929C54.1312 18.5263 48.257 19.019 43.9705 22.2683L43.7959 22.3985C41.0571 24.4715 37.7723 25.5073 34.4964 25.5073Z" fill="#0066FF"/>
</g>
</svg>
