<svg width="63" height="28" viewBox="0 0 63 28" fill="none" xmlns="http://www.w3.org/2000/svg">
<mask id="mask0_314_399" style="mask-type:luminance" maskUnits="userSpaceOnUse" x="16" y="2" width="7" height="7">
<path d="M16.4468 2.74915H22.2716V8.46157H16.4468V2.74915Z" fill="white"/>
</mask>
<g mask="url(#mask0_314_399)">
<path d="M22.0252 5.45546C22.0252 5.63347 22.0078 5.8088 21.973 5.9828C21.9382 6.15813 21.886 6.32677 21.8177 6.4914C21.7495 6.65469 21.6651 6.81129 21.5661 6.95851C21.4671 7.10708 21.3533 7.2436 21.2275 7.36941C21.1003 7.49523 20.9638 7.60632 20.8152 7.70536C20.6667 7.8044 20.5087 7.88739 20.3441 7.95565C20.1781 8.02391 20.0082 8.07477 19.8328 8.10957C19.6575 8.14437 19.4808 8.16176 19.3015 8.16176C19.1235 8.16176 18.9454 8.14437 18.7701 8.10957C18.5948 8.07477 18.4248 8.02391 18.2602 7.95565C18.0942 7.88739 17.9376 7.8044 17.789 7.70536C17.6405 7.60632 17.5026 7.49523 17.3768 7.36941C17.2497 7.2436 17.1372 7.10708 17.0382 6.95851C16.9391 6.81129 16.8548 6.65469 16.7866 6.4914C16.7183 6.32677 16.6661 6.15813 16.6313 5.9828C16.5965 5.8088 16.5791 5.63347 16.5791 5.45546C16.5791 5.27744 16.5965 5.10211 16.6313 4.92811C16.6661 4.75278 16.7183 4.58414 16.7866 4.41951C16.8548 4.25622 16.9391 4.09962 17.0382 3.9524C17.1372 3.80383 17.2497 3.66731 17.3768 3.5415C17.5026 3.41568 17.6405 3.30459 17.789 3.20555C17.9376 3.10651 18.0942 3.02352 18.2602 2.95526C18.4248 2.887 18.5948 2.83614 18.7701 2.80134C18.9454 2.76654 19.1235 2.74915 19.3015 2.74915C19.4808 2.74915 19.6575 2.76654 19.8328 2.80134C20.0082 2.83614 20.1781 2.887 20.3441 2.95526C20.5087 3.02352 20.6667 3.10651 20.8152 3.20555C20.9638 3.30459 21.1003 3.41568 21.2275 3.5415C21.3533 3.66731 21.4671 3.80383 21.5661 3.9524C21.6651 4.09962 21.7495 4.25622 21.8177 4.41951C21.886 4.58414 21.9382 4.75278 21.973 4.92811C22.0078 5.10211 22.0252 5.27744 22.0252 5.45546Z" fill="#0066FF"/>
</g>
<mask id="mask1_314_399" style="mask-type:luminance" maskUnits="userSpaceOnUse" x="40" y="2" width="7" height="7">
<path d="M40.7739 2.74915H46.5988V8.46157H40.7739V2.74915Z" fill="white"/>
</mask>
<g mask="url(#mask1_314_399)">
<path d="M46.5013 5.45546C46.5013 5.63347 46.4839 5.8088 46.4491 5.9828C46.4143 6.15813 46.3621 6.32677 46.2938 6.4914C46.2255 6.65469 46.1412 6.81129 46.0422 6.95851C45.9431 7.10708 45.8307 7.2436 45.7036 7.36941C45.5777 7.49523 45.4399 7.60632 45.2913 7.70536C45.1427 7.8044 44.9848 7.88739 44.8202 7.95565C44.6556 8.02391 44.4842 8.07477 44.3089 8.10957C44.1336 8.14437 43.9569 8.16176 43.7775 8.16176C43.5995 8.16176 43.4229 8.14437 43.2475 8.10957C43.0722 8.07477 42.9009 8.02391 42.7362 7.95565C42.5716 7.88739 42.4137 7.8044 42.2651 7.70536C42.1166 7.60632 41.9787 7.49523 41.8529 7.36941C41.7257 7.2436 41.6133 7.10708 41.5143 6.95851C41.4152 6.81129 41.3309 6.65469 41.2626 6.4914C41.1944 6.32677 41.1422 6.15813 41.1074 5.9828C41.0726 5.8088 41.0552 5.63347 41.0552 5.45546C41.0552 5.27744 41.0726 5.10211 41.1074 4.92811C41.1422 4.75278 41.1944 4.58414 41.2626 4.41951C41.3309 4.25622 41.4152 4.09962 41.5143 3.9524C41.6133 3.80383 41.7257 3.66731 41.8529 3.5415C41.9787 3.41568 42.1166 3.30459 42.2651 3.20555C42.4137 3.10651 42.5716 3.02352 42.7362 2.95526C42.9009 2.887 43.0722 2.83614 43.2475 2.80134C43.4229 2.76654 43.5995 2.74915 43.7775 2.74915C43.9569 2.74915 44.1336 2.76654 44.3089 2.80134C44.4842 2.83614 44.6556 2.887 44.8202 2.95526C44.9848 3.02352 45.1427 3.10651 45.2913 3.20555C45.4399 3.30459 45.5777 3.41568 45.7036 3.5415C45.8307 3.66731 45.9431 3.80383 46.0422 3.9524C46.1412 4.09962 46.2255 4.25622 46.2938 4.41951C46.3621 4.58414 46.4143 4.75278 46.4491 4.92811C46.4839 5.10211 46.5013 5.27744 46.5013 5.45546Z" fill="#0066FF"/>
</g>
<mask id="mask2_314_399" style="mask-type:luminance" maskUnits="userSpaceOnUse" x="0" y="14" width="63" height="12">
<path d="M0 14.6291H63V25.2509H0V14.6291Z" fill="white"/>
</mask>
<g mask="url(#mask2_314_399)">
<path d="M1.65975 25.1144C1.10564 25.1144 0.575618 24.8133 0.30927 24.2926C-0.0695062 23.5538 0.226287 22.6423 0.977148 22.2649L2.27409 21.6091C21.0536 12.1263 43.3452 12.3752 61.9053 22.281C62.6414 22.6731 62.9225 23.5846 62.5276 24.3234C62.1328 25.0542 61.216 25.3339 60.4718 24.9418C42.7764 15.4965 21.5395 15.2622 3.63929 24.3007L2.34235 24.9565C2.12954 25.0622 1.89531 25.1144 1.65975 25.1144Z" fill="#0066FF"/>
</g>
</svg>
