<svg width="64" height="28" viewBox="0 0 64 28" fill="none" xmlns="http://www.w3.org/2000/svg">
<mask id="mask0_314_351" style="mask-type:luminance" maskUnits="userSpaceOnUse" x="13" y="20" width="36" height="8">
<path d="M13.9297 20.6439H48.0796V28H13.9297V20.6439Z" fill="white"/>
</mask>
<g mask="url(#mask0_314_351)">
<path d="M27.0727 23.374C27.0999 23.374 27.127 23.3751 27.1564 23.3774H27.1451C27.1202 23.3763 27.0942 23.3751 27.0693 23.3751C27.0445 23.3751 27.0196 23.3763 26.9936 23.3774C27.0196 23.3751 27.0456 23.374 27.0727 23.374ZM15.2806 20.7626C14.9267 20.7626 14.5763 20.9242 14.3479 21.2306C13.9658 21.745 14.0721 22.4719 14.5865 22.854C17.2137 24.8086 20.3384 25.8826 23.9594 26.0759L24.0215 26.077C25.386 26.077 26.4804 25.9447 27.3045 25.6813H27.2841C27.3644 25.67 27.4469 25.6508 27.5317 25.6259C27.9963 25.4858 29.2433 24.8753 31.2714 23.7946H31.2657C31.7383 23.5843 32.1498 23.4373 32.498 23.3514L32.5093 23.3491C32.9445 23.2372 33.4227 23.1818 33.9439 23.1818C34.3203 23.1818 34.7171 23.2101 35.1365 23.2677H35.1162C39.3487 24.2682 43.0511 25.7605 46.2244 27.7422C46.4166 27.8621 46.6291 27.9197 46.8394 27.9197C47.226 27.9197 47.6047 27.7264 47.824 27.3737C48.1643 26.8299 47.9993 26.1143 47.4555 25.774C44.0437 23.6431 40.0813 22.0479 35.5661 20.9887L35.461 20.9695C34.9342 20.8971 34.4288 20.8598 33.945 20.8598C33.2283 20.8598 32.5579 20.9401 31.9338 21.0995H31.9327C31.4545 21.2182 30.9187 21.4081 30.324 21.6715L30.2483 21.7088C28.3818 22.7048 27.266 23.2655 26.8986 23.391H26.8783C26.8116 23.4023 26.7449 23.4192 26.6805 23.4418C26.0971 23.6498 25.221 23.7539 24.0509 23.7561C20.9104 23.5831 18.2176 22.6618 15.9736 20.9921C15.7644 20.8372 15.5214 20.7626 15.2806 20.7626Z" fill="#0066FF"/>
</g>
<mask id="mask1_314_351" style="mask-type:luminance" maskUnits="userSpaceOnUse" x="8" y="0" width="10" height="9">
<path d="M8 0H17.1129V8.77826H8V0Z" fill="white"/>
</mask>
<g mask="url(#mask1_314_351)">
<path d="M12.2747 0.0689697L12.078 0.0746222C11.8801 0.0689698 11.5512 0.125494 11.0899 0.241935C10.9576 0.280372 10.8265 0.32446 10.6942 0.375333L10.077 0.64439L9.6881 0.870488C9.44279 1.03554 9.2246 1.22772 9.03242 1.44591C8.64918 1.88341 8.37334 2.4283 8.20377 3.0806L8.09298 3.61984C8.0342 4.04717 8.01611 4.45075 8.03872 4.82947C8.10655 5.96561 8.53839 6.88131 9.33426 7.57656C10.2194 8.34416 11.3838 8.70479 12.8286 8.65844C13.9648 8.62792 14.9946 8.19494 15.9182 7.35951L16.2913 6.95027L16.583 6.50825L16.7921 6.03344L16.9187 5.52472C16.9764 5.17427 16.9798 4.80347 16.9278 4.40892C16.7989 3.35418 16.2936 2.35595 15.4106 1.41199C14.9426 0.966579 14.4803 0.644389 14.0247 0.446554C13.4425 0.194454 12.8591 0.0689697 12.2747 0.0689697Z" fill="#0066FF"/>
</g>
<path d="M52.1152 4.8623C52.1164 4.8623 52.1175 4.8623 52.1186 4.8623H52.1152ZM51.9897 0.877319L51.8371 0.87958C51.6834 0.877319 51.4335 0.913495 51.0842 0.989238L50.1154 1.28656L49.8124 1.40074C49.5298 1.48326 49.159 1.7331 48.7 2.14912C48.2987 2.60019 48.0353 3.00603 47.9098 3.36892L47.7289 3.95678C47.6351 4.34001 47.5921 4.70403 47.6 5.05109C47.6272 6.09227 48.1167 6.97293 49.0719 7.69192C49.3772 7.94402 49.8701 8.19047 50.5518 8.429C50.8909 8.5477 51.3589 8.60423 51.957 8.60083C52.4001 8.59631 52.928 8.48665 53.5396 8.27299L54.0721 8.0028C54.4067 7.81288 54.7007 7.60374 54.9539 7.37425C55.7147 6.68804 56.1092 5.82661 56.1398 4.79108C56.1669 4.5582 56.0946 4.12974 55.9216 3.50458C55.7464 3.0049 55.466 2.56062 55.0816 2.1706C54.7176 1.7738 54.2066 1.44709 53.5498 1.19047C53.0196 0.981325 52.4996 0.877319 51.9897 0.877319Z" fill="#0066FF"/>
</svg>
