<svg width="63" height="28" viewBox="0 0 63 28" fill="none" xmlns="http://www.w3.org/2000/svg">
<mask id="mask0_314_233" style="mask-type:luminance" maskUnits="userSpaceOnUse" x="8" y="20" width="48" height="8">
<path d="M8 20.6032H55.236V28H8V20.6032Z" fill="white"/>
</mask>
<g mask="url(#mask0_314_233)">
<path d="M34.9788 20.6103C34.8568 20.6103 34.7348 20.6143 34.6138 20.6214H34.6037C33.656 20.6506 32.7041 20.7777 31.7473 21.0025H31.7372C31.6999 21.0106 31.6616 21.0186 31.6212 21.0277C31.0778 21.1568 29.4746 21.7204 26.8117 22.7206H26.8016C26.0706 22.9364 25.4727 23.0634 25.0069 23.1028C24.5612 23.0967 24.1569 23.0443 23.795 22.9475H23.7849L20.273 21.5792C20.1863 21.545 20.0976 21.5177 20.0078 21.4966C19.4049 21.3564 18.7949 21.2868 18.1768 21.2868C17.8148 21.2868 17.4508 21.311 17.0838 21.3584L17.0374 21.3655C14.2949 21.792 11.623 22.8215 9.01959 24.4539C8.11717 25.0205 7.84595 26.2083 8.41462 27.1077C8.78264 27.6874 9.40979 28.006 10.0521 28.006C10.404 28.006 10.7599 27.9103 11.0795 27.7096C13.2191 26.3686 15.3899 25.5236 17.592 25.1738H17.588C17.7856 25.1486 17.9812 25.1355 18.1738 25.1355C18.4632 25.1355 18.7475 25.1637 19.0268 25.2222H19.0167L22.4338 26.5531L22.582 26.6035C23.3473 26.8324 24.1751 26.9484 25.0644 26.9514L25.2005 26.9473C25.99 26.8939 26.9337 26.7023 28.0297 26.3716L28.1527 26.3303C30.5968 25.4117 32.0377 24.8955 32.4742 24.7816H32.4662C32.5166 24.7735 32.567 24.7644 32.6164 24.7523C33.3393 24.5809 34.0542 24.4851 34.761 24.467L34.8316 24.4629C34.879 24.4599 34.9274 24.4589 34.9758 24.4589C35.3751 24.4589 35.8147 24.5597 36.2926 24.7614C36.3632 24.7906 36.4348 24.8158 36.5084 24.837H36.5074C36.8774 24.9641 37.6901 25.4823 38.9444 26.3908C39.0049 26.4351 39.0684 26.4755 39.1339 26.5128C39.1955 26.5471 39.26 26.5803 39.3255 26.6126H39.3265C39.7843 26.8354 40.3378 26.9907 40.9852 27.0764H40.9841C41.1959 27.1067 41.4217 27.1218 41.6617 27.1218C42.1507 27.1218 42.6972 27.0593 43.3012 26.9332C43.398 26.9131 43.4938 26.8858 43.5855 26.8516C46.6346 25.7122 48.5452 25.1375 49.3166 25.1284L49.3539 25.1274C49.4577 25.1244 49.5586 25.1224 49.6554 25.1224C50.6929 25.1224 51.321 25.3109 51.5398 25.687C51.8978 26.3041 52.5471 26.6489 53.2146 26.6489C53.5433 26.6489 53.875 26.5652 54.1795 26.3898C55.1041 25.8584 55.4207 24.6817 54.8863 23.7612C53.9244 22.1036 52.169 21.2747 49.6201 21.2747C49.492 21.2747 49.362 21.2768 49.2309 21.2808H49.2248C48.0078 21.311 45.72 21.9493 42.3635 23.1986H42.3534C42.0741 23.251 41.8513 23.2772 41.6859 23.2772C41.6264 23.2772 41.575 23.2742 41.5296 23.2671L41.4974 23.2621C41.3199 23.2389 41.1858 23.2127 41.0961 23.1834H41.086C39.5947 22.1106 38.4876 21.4492 37.7637 21.1981H37.7536C36.8088 20.8069 35.8843 20.6103 34.9788 20.6103Z" fill="#0066FF"/>
</g>
<path d="M22.8922 0C22.3578 0 21.8255 0.219805 21.4433 0.650342C21.289 0.824775 21.0118 1.08693 20.6135 1.4368H20.6125C19.2443 2.57919 18.0797 3.5794 17.1178 4.43745C16.6257 4.87706 16.0127 5.46993 15.2787 6.21505C14.5325 6.97429 14.5457 8.19229 15.3079 8.9364C15.684 9.30241 16.172 9.48491 16.66 9.48491C17.1611 9.48491 17.6623 9.29233 18.0404 8.90716C18.7149 8.22153 19.2674 7.68714 19.698 7.30299L19.7 7.30198C20.6367 6.4641 21.7811 5.48203 23.1332 4.35477L23.1705 4.32251C23.6898 3.86676 24.079 3.49168 24.3401 3.19726C25.0469 2.40072 24.9713 1.18574 24.1707 0.481959C23.8037 0.1583 23.347 0 22.8922 0Z" fill="#0066FF"/>
<path d="M39.8597 1.32086C39.2154 1.32086 38.5852 1.6415 38.2182 2.2263C37.6536 3.12871 37.9298 4.31546 38.8131 4.86397H38.8141L38.8363 4.87808C39.7125 5.42255 41.0958 6.31892 42.9844 7.56818L43.0267 7.5954C43.2425 7.73051 43.5399 7.94931 43.918 8.25079C44.275 8.53613 44.7025 8.67527 45.127 8.67527C45.6926 8.67527 46.2532 8.42824 46.6353 7.95536C47.3028 7.12655 47.1697 5.9156 46.3379 5.25014C45.863 4.87102 45.4587 4.5756 45.1239 4.36285H45.1229C43.2173 3.1025 41.8107 2.19101 40.9033 1.62637L40.8811 1.61226C40.5625 1.41463 40.2096 1.32086 39.8597 1.32086Z" fill="#0066FF"/>
</svg>
