<svg width="371" height="187" viewBox="0 0 371 187" fill="none" xmlns="http://www.w3.org/2000/svg">
<path d="M26.2031 41.3906C27.0469 41.3906 27.8594 41.5625 28.6406 41.9062C29.4219 42.2188 30.0938 42.6562 30.6562 43.2188C31.2188 43.7812 31.6562 44.4375 31.9688 45.1875C32.3125 45.9375 32.4844 46.7344 32.4844 47.5781C32.4844 48.4219 32.3125 49.2344 31.9688 50.0156C31.6562 50.7969 31.2188 51.4688 30.6562 52.0312C30.0938 52.5938 29.4219 53.0469 28.6406 53.3906C27.8594 53.7031 27.0469 53.8594 26.2031 53.8594H23.3906V73.5V73.6875C23.3594 75.8438 22.9219 77.875 22.0781 79.7812C21.2656 81.7188 20.1406 83.4219 18.7031 84.8906C17.2344 86.4219 15.5156 87.6094 13.5469 88.4531C11.5781 89.2969 9.48438 89.7188 7.26562 89.7188C5.51562 89.7188 4.04688 89.125 2.85938 87.9375C1.64062 86.7188 1.03125 85.2188 1.03125 83.4375C1.03125 82.625 1.1875 81.8281 1.5 81.0469C1.84375 80.2969 2.29688 79.6406 2.85938 79.0781C4.07812 77.8594 5.54688 77.25 7.26562 77.25C8.20312 77.25 9.01562 76.9062 9.70312 76.2188C10.4219 75.5312 10.8125 74.7188 10.875 73.7812V53.8594H9.51562C7.76562 53.8594 6.29688 53.2344 5.10938 51.9844C4.54688 51.4219 4.09375 50.7656 3.75 50.0156C3.4375 49.2344 3.28125 48.4219 3.28125 47.5781C3.28125 46.7344 3.4375 45.9375 3.75 45.1875C4.09375 44.4375 4.54688 43.7812 5.10938 43.2188C6.32812 42 7.79688 41.3906 9.51562 41.3906H10.875V29.0625C10.9062 26.9375 11.3438 24.9062 12.1875 22.9688C13.0312 21 14.2031 19.2812 15.7031 17.8125C17.2031 16.3438 18.9219 15.2031 20.8594 14.3906C22.7969 13.5469 24.8594 13.125 27.0469 13.125C27.8906 13.125 28.7031 13.2969 29.4844 13.6406C30.2656 13.9531 30.9531 14.3906 31.5469 14.9531C32.1094 15.5156 32.5469 16.2031 32.8594 17.0156C33.2031 17.7969 33.375 18.6094 33.375 19.4531C33.375 20.2656 33.2031 21.0625 32.8594 21.8438C32.5469 22.5938 32.1094 23.25 31.5469 23.8125C30.9531 24.375 30.2656 24.8281 29.4844 25.1719C28.7031 25.4844 27.8906 25.6406 27.0469 25.6406H26.9062C25.9688 25.7031 25.1562 26.0625 24.4688 26.7188C23.8125 27.375 23.4531 28.1719 23.3906 29.1094V41.3906H26.2031ZM42.375 25.9688C40.5625 25.9688 39 25.3125 37.6875 24C37.0625 23.375 36.5625 22.6562 36.1875 21.8438C35.8438 21.0313 35.6719 20.1875 35.6719 19.3125C35.6719 17.5 36.3438 15.9219 37.6875 14.5781C38.9688 13.2969 40.5312 12.6562 42.375 12.6562C43.2812 12.6562 44.1406 12.8281 44.9531 13.1719C45.7656 13.4844 46.4844 13.9531 47.1094 14.5781C48.4219 15.8906 49.0781 17.4688 49.0781 19.3125C49.0781 21.125 48.4219 22.6875 47.1094 24C46.4844 24.625 45.7656 25.1094 44.9531 25.4531C44.1406 25.7969 43.2812 25.9688 42.375 25.9688ZM42.375 75.5156C41.5312 75.5156 40.7188 75.3438 39.9375 75C39.1875 74.6875 38.5312 74.25 37.9688 73.6875C37.375 73.125 36.9062 72.4688 36.5625 71.7188C36.2188 70.9375 36.0469 70.1406 36.0469 69.3281V35.9531C36.0469 35.1406 36.2188 34.3594 36.5625 33.6094C36.9062 32.8281 37.375 32.1562 37.9688 31.5938C38.5312 31.0312 39.2031 30.5938 39.9844 30.2812C40.7969 29.9375 41.625 29.7656 42.4688 29.7656C43.2812 29.7656 44.0625 29.9375 44.8125 30.2812C45.5938 30.5938 46.2656 31.0312 46.8281 31.5938C47.3906 32.1562 47.8125 32.8125 48.0938 33.5625C48.4062 34.3125 48.5625 35.1094 48.5625 35.9531V69.3281C48.5625 70.1406 48.3906 70.9375 48.0469 71.7188C47.7344 72.4688 47.2969 73.125 46.7344 73.6875C46.1719 74.25 45.5156 74.6875 44.7656 75C44.0156 75.3438 43.2188 75.5156 42.375 75.5156ZM66.3281 75C65.4844 75 64.6719 74.8438 63.8906 74.5312C63.1094 74.2188 62.4219 73.7812 61.8281 73.2188C60.5469 72.0312 59.9062 70.5938 59.9062 68.9062V52.0312C59.9062 49.0312 60.4844 46.1719 61.6406 43.4531C62.7969 40.7344 64.4062 38.3438 66.4688 36.2812C68.5312 34.2188 70.9062 32.625 73.5938 31.5C76.2812 30.3438 79.125 29.7656 82.125 29.7656C85.1562 29.7656 88.0469 30.3438 90.7969 31.5C93.5781 32.625 96.0312 34.2188 98.1562 36.2812C100.281 38.3438 101.938 40.7344 103.125 43.4531C104.344 46.1719 104.953 49.0312 104.953 52.0312V68.9062C104.953 70.625 104.375 72.0625 103.219 73.2188C102.656 73.7812 102 74.2188 101.25 74.5312C100.5 74.8438 99.7031 75 98.8594 75C97.9844 75 97.1562 74.8438 96.375 74.5312C95.625 74.2188 94.9688 73.7812 94.4062 73.2188C93.1562 72.0625 92.5312 70.625 92.5312 68.9062V52.0781C92.5 50.7656 92.2031 49.5156 91.6406 48.3281C91.0781 47.1094 90.2969 46.0469 89.2969 45.1406C88.3281 44.2344 87.2188 43.5312 85.9688 43.0312C84.7188 42.5312 83.4375 42.2812 82.125 42.2812C80.8125 42.2812 79.5625 42.5312 78.375 43.0312C77.1875 43.5 76.1719 44.1562 75.3281 45C74.4531 45.875 73.75 46.9062 73.2188 48.0938C72.7188 49.25 72.4531 50.4844 72.4219 51.7969V68.9062C72.4219 70.6562 71.8281 72.0938 70.6406 73.2188C69.4531 74.4062 68.0156 75 66.3281 75ZM134.062 75.5156C130.969 75.5156 128.031 74.9375 125.25 73.7812C122.5 72.5938 120.062 70.9375 117.938 68.8125C115.812 66.7188 114.156 64.2812 112.969 61.5C111.781 58.7188 111.188 55.7812 111.188 52.6875C111.188 49.5938 111.781 46.6562 112.969 43.875C114.156 41.0625 115.812 38.5938 117.938 36.4688C120.062 34.3438 122.5 32.7031 125.25 31.5469C128.031 30.3594 130.969 29.7656 134.062 29.7656C136.688 29.7656 138.812 30.0938 140.438 30.75C142.094 31.4062 143.438 32.4062 144.469 33.75V19.5938C144.469 17.75 145.062 16.2031 146.25 14.9531C147.406 13.7344 148.875 13.125 150.656 13.125C151.5 13.125 152.312 13.2969 153.094 13.6406C153.875 13.9531 154.547 14.3906 155.109 14.9531C155.672 15.5469 156.109 16.25 156.422 17.0625C156.766 17.8438 156.938 18.6875 156.938 19.5938V52.6875C156.938 55.7812 156.344 58.7188 155.156 61.5C154 64.25 152.359 66.6875 150.234 68.8125C148.141 70.9062 145.688 72.5469 142.875 73.7344C140.094 74.9219 137.156 75.5156 134.062 75.5156ZM134.062 63C135.469 63 136.812 62.7344 138.094 62.2031C139.375 61.6719 140.484 60.9375 141.422 60C142.391 59.0312 143.141 57.9219 143.672 56.6719C144.203 55.4219 144.469 54.0938 144.469 52.6875C144.469 51.2812 144.203 49.9531 143.672 48.7031C143.141 47.4531 142.391 46.3438 141.422 45.375C140.484 44.4375 139.375 43.7031 138.094 43.1719C136.812 42.6406 135.469 42.375 134.062 42.375C132.688 42.375 131.359 42.6406 130.078 43.1719C128.828 43.7031 127.734 44.4375 126.797 45.375C125.828 46.3438 125.062 47.4531 124.5 48.7031C123.969 49.9531 123.703 51.2812 123.703 52.6875C123.703 54.0938 123.969 55.4219 124.5 56.6719C125.062 57.9219 125.828 59.0312 126.797 60C127.734 60.9375 128.828 61.6719 130.078 62.2031C131.359 62.7344 132.688 63 134.062 63Z" fill="#B485FF"/>
<path d="M223.453 100.484C222.609 100.484 221.812 100.312 221.062 99.9688C220.312 99.6562 219.656 99.2188 219.094 98.6562C217.906 97.4688 217.312 96 217.312 94.25V82.2031C213.906 84.5469 210.344 85.7188 206.625 85.7188C203.469 85.7188 200.469 85.125 197.625 83.9375C194.812 82.7188 192.328 81.0312 190.172 78.875C188.016 76.7188 186.328 74.2344 185.109 71.4219C183.922 68.5781 183.328 65.5625 183.328 62.375V45.4062C183.328 44.5625 183.484 43.75 183.797 42.9688C184.141 42.1562 184.594 41.4688 185.156 40.9062C186.375 39.6875 187.844 39.0781 189.562 39.0781C190.406 39.0781 191.219 39.25 192 39.5938C192.781 39.9062 193.469 40.3438 194.062 40.9062C194.625 41.4688 195.062 42.1562 195.375 42.9688C195.719 43.75 195.891 44.5625 195.891 45.4062V62.375C195.891 63.8125 196.172 65.1875 196.734 66.5C197.297 67.7812 198.078 68.9219 199.078 69.9219C200.078 70.9219 201.219 71.7188 202.5 72.3125C203.812 72.875 205.188 73.1562 206.625 73.1562C208 73.1562 209.344 72.875 210.656 72.3125C211.969 71.7188 213.125 70.9219 214.125 69.9219C215.125 68.9219 215.906 67.7812 216.469 66.5C217.031 65.1875 217.312 63.8125 217.312 62.375V45.4062C217.312 44.5625 217.469 43.75 217.781 42.9688C218.125 42.1562 218.578 41.4688 219.141 40.9062C220.359 39.6875 221.828 39.0781 223.547 39.0781C224.391 39.0781 225.188 39.25 225.938 39.5938C226.719 39.9062 227.406 40.3438 228 40.9062C228.562 41.4688 229.016 42.1562 229.359 42.9688C229.703 43.75 229.875 44.5625 229.875 45.4062V94.25C229.875 95.0938 229.703 95.8906 229.359 96.6406C229.047 97.3906 228.594 98.0625 228 98.6562C227.406 99.2188 226.703 99.6562 225.891 99.9688C225.109 100.312 224.297 100.484 223.453 100.484ZM257.719 86.5156C254.625 86.5156 251.688 85.9375 248.906 84.7812C246.156 83.5938 243.719 81.9375 241.594 79.8125C239.469 77.7188 237.812 75.2812 236.625 72.5C235.438 69.7188 234.844 66.7812 234.844 63.6875C234.844 60.5938 235.438 57.6562 236.625 54.875C237.812 52.0625 239.469 49.5938 241.594 47.4688C243.719 45.3438 246.156 43.7031 248.906 42.5469C251.688 41.3594 254.625 40.7656 257.719 40.7656C260.812 40.7656 263.75 41.3594 266.531 42.5469C269.344 43.7344 271.797 45.375 273.891 47.4688C275.984 49.5938 277.625 52.0625 278.812 54.875C280 57.6562 280.594 60.5938 280.594 63.6875C280.594 66.7812 280 69.7188 278.812 72.5C277.656 75.25 276.016 77.6875 273.891 79.8125C271.797 81.9062 269.344 83.5469 266.531 84.7344C263.75 85.9219 260.812 86.5156 257.719 86.5156ZM257.719 74C259.125 74 260.469 73.7344 261.75 73.2031C263.031 72.6719 264.141 71.9375 265.078 71C266.047 70.0312 266.797 68.9219 267.328 67.6719C267.859 66.4219 268.125 65.0938 268.125 63.6875C268.125 62.2812 267.859 60.9531 267.328 59.7031C266.797 58.4531 266.047 57.3438 265.078 56.375C264.141 55.4375 263.031 54.7031 261.75 54.1719C260.469 53.6406 259.125 53.375 257.719 53.375C256.344 53.375 255.016 53.6406 253.734 54.1719C252.484 54.7031 251.391 55.4375 250.453 56.375C249.484 57.3438 248.719 58.4531 248.156 59.7031C247.625 60.9531 247.359 62.2812 247.359 63.6875C247.359 65.0938 247.625 66.4219 248.156 67.6719C248.719 68.9219 249.484 70.0312 250.453 71C251.391 71.9375 252.484 72.6719 253.734 73.2031C255.016 73.7344 256.344 74 257.719 74ZM309.141 86.5156C306.141 86.5156 303.281 85.9375 300.562 84.7812C297.844 83.625 295.453 82.0156 293.391 79.9531C291.328 77.8906 289.719 75.5156 288.562 72.8281C287.406 70.1406 286.828 67.2969 286.828 64.2969V46.9531C286.828 46.1094 286.984 45.3125 287.297 44.5625C287.641 43.8125 288.094 43.1562 288.656 42.5938C289.219 42.0312 289.875 41.5938 290.625 41.2812C291.406 40.9375 292.203 40.7656 293.016 40.7656C293.859 40.7656 294.656 40.9375 295.406 41.2812C296.188 41.5938 296.875 42.0312 297.469 42.5938C298.031 43.1562 298.469 43.8125 298.781 44.5625C299.125 45.3125 299.297 46.1094 299.297 46.9531V64.4375C299.297 65.8125 299.547 67.0938 300.047 68.2812C300.547 69.4375 301.25 70.4375 302.156 71.2812C303.062 72.1562 304.109 72.8438 305.297 73.3438C306.484 73.8125 307.766 74.0469 309.141 74.0469C310.484 74.0469 311.703 73.8125 312.797 73.3438C313.891 72.8438 314.828 72.1406 315.609 71.2344C316.359 70.3594 316.938 69.3281 317.344 68.1406C317.75 66.9531 317.953 65.6719 317.953 64.2969V46.9531C317.953 46.1406 318.125 45.3594 318.469 44.6094C318.812 43.8281 319.281 43.1562 319.875 42.5938C320.438 42.0312 321.109 41.5938 321.891 41.2812C322.672 40.9375 323.484 40.7656 324.328 40.7656C325.172 40.7656 325.969 40.9375 326.719 41.2812C327.469 41.5938 328.125 42.0312 328.688 42.5938C329.25 43.1562 329.672 43.8125 329.953 44.5625C330.266 45.3125 330.422 46.1094 330.422 46.9531V64.2969C330.422 67.3281 329.891 70.1875 328.828 72.875C327.797 75.5625 326.312 77.9219 324.375 79.9531C322.438 82.0156 320.156 83.625 317.531 84.7812C314.938 85.9375 312.141 86.5156 309.141 86.5156ZM345.141 86C344.297 86 343.484 85.8438 342.703 85.5312C341.922 85.2188 341.25 84.7812 340.688 84.2188C340.094 83.6562 339.625 83 339.281 82.25C338.938 81.5 338.766 80.7031 338.766 79.8594V64.1094C338.859 60.9844 339.531 58.0156 340.781 55.2031C342.062 52.3594 343.797 49.8594 345.984 47.7031C348.141 45.5781 350.625 43.9062 353.438 42.6875C356.281 41.4688 359.281 40.8281 362.438 40.7656H362.812C364.844 40.7656 366.422 41.3438 367.547 42.5C368.703 43.625 369.281 45.1094 369.281 46.9531C369.281 48.6719 368.656 50.1562 367.406 51.4062C366.812 51.9688 366.109 52.4062 365.297 52.7188C364.516 53.0312 363.688 53.1875 362.812 53.1875H362.531C361 53.2188 359.562 53.5312 358.219 54.125C356.875 54.7188 355.688 55.5469 354.656 56.6094C353.594 57.6719 352.766 58.8906 352.172 60.2656C351.578 61.6406 351.266 63.0938 351.234 64.625V79.8594C351.234 80.7344 351.078 81.5469 350.766 82.2969C350.453 83.0469 350.016 83.6875 349.453 84.2188C348.266 85.4062 346.828 86 345.141 86Z" fill="#B485FF"/>
<path d="M87.3462 165.891C85.6028 165.738 84.1461 164.999 82.9759 163.673C81.8342 162.381 81.3423 160.833 81.5003 159.027L84.2497 127.6C84.5575 124.082 85.3402 120.873 86.5979 117.971C87.8867 115.073 89.5915 112.618 91.7123 110.608C93.8669 108.569 96.3969 107.081 99.3021 106.143C102.21 105.174 105.408 104.842 108.894 105.147C112.412 105.455 115.536 106.324 118.265 107.755C121.028 109.157 123.325 111.052 125.155 113.44C126.957 115.793 128.25 118.588 129.033 121.825C129.819 125.031 130.045 128.548 129.71 132.377L127.029 163.01C126.877 164.754 126.124 166.193 124.769 167.33C124.129 167.838 123.389 168.228 122.55 168.5C121.744 168.743 120.921 168.828 120.08 168.755C119.178 168.676 118.351 168.446 117.6 168.067C116.851 167.657 116.222 167.147 115.71 166.537C114.54 165.211 114.033 163.661 114.188 161.887L115.042 152.127L95.149 150.387L94.2951 160.146C94.1372 161.952 93.3838 163.392 92.0351 164.466C91.3946 164.974 90.6546 165.365 89.8152 165.636C89.0097 165.879 88.1867 165.964 87.3462 165.891ZM116.157 139.379L116.868 131.254C117.217 127.269 116.644 124.129 115.151 121.834C113.661 119.508 111.297 118.203 108.059 117.92C104.79 117.634 102.211 118.428 100.322 120.301C98.4667 122.147 97.3497 125.233 96.9711 129.56L96.2643 137.639L116.157 139.379Z" fill="#B485FF"/>
<path d="M159.976 181.453C156.976 181.453 154.116 180.875 151.397 179.719C148.679 178.562 146.288 176.953 144.226 174.891C142.163 172.828 140.554 170.453 139.397 167.766C138.241 165.078 137.663 162.234 137.663 159.234V141.891C137.663 141.047 137.819 140.25 138.132 139.5C138.476 138.75 138.929 138.094 139.491 137.531C140.054 136.969 140.71 136.531 141.46 136.219C142.241 135.875 143.038 135.703 143.851 135.703C144.694 135.703 145.491 135.875 146.241 136.219C147.022 136.531 147.71 136.969 148.304 137.531C148.866 138.094 149.304 138.75 149.616 139.5C149.96 140.25 150.132 141.047 150.132 141.891V159.375C150.132 160.75 150.382 162.031 150.882 163.219C151.382 164.375 152.085 165.375 152.991 166.219C153.897 167.094 154.944 167.781 156.132 168.281C157.319 168.75 158.601 168.984 159.976 168.984C161.319 168.984 162.538 168.75 163.632 168.281C164.726 167.781 165.663 167.078 166.444 166.172C167.194 165.297 167.772 164.266 168.179 163.078C168.585 161.891 168.788 160.609 168.788 159.234V141.891C168.788 141.078 168.96 140.297 169.304 139.547C169.647 138.766 170.116 138.094 170.71 137.531C171.272 136.969 171.944 136.531 172.726 136.219C173.507 135.875 174.319 135.703 175.163 135.703C176.007 135.703 176.804 135.875 177.554 136.219C178.304 136.531 178.96 136.969 179.522 137.531C180.085 138.094 180.507 138.75 180.788 139.5C181.101 140.25 181.257 141.047 181.257 141.891V159.234C181.257 162.266 180.726 165.125 179.663 167.812C178.632 170.5 177.147 172.859 175.21 174.891C173.272 176.953 170.991 178.562 168.366 179.719C165.772 180.875 162.976 181.453 159.976 181.453Z" fill="#B485FF"/>
<path d="M196.179 164.234C195.335 164.234 194.522 164.078 193.741 163.766C192.96 163.453 192.288 163.016 191.726 162.453C191.132 161.891 190.663 161.234 190.319 160.484C189.976 159.734 189.804 158.938 189.804 158.094V142.344C189.897 139.219 190.569 136.25 191.819 133.438C193.101 130.594 194.835 128.094 197.022 125.938C199.179 123.812 201.663 122.141 204.476 120.922C207.319 119.703 210.319 119.062 213.476 119H213.851C215.882 119 217.46 119.578 218.585 120.734C219.741 121.859 220.319 123.344 220.319 125.188C220.319 126.906 219.694 128.391 218.444 129.641C217.851 130.203 217.147 130.641 216.335 130.953C215.554 131.266 214.726 131.422 213.851 131.422H213.569C212.038 131.453 210.601 131.766 209.257 132.359C207.913 132.953 206.726 133.781 205.694 134.844C204.632 135.906 203.804 137.125 203.21 138.5C202.616 139.875 202.304 141.328 202.272 142.859V158.094C202.272 158.969 202.116 159.781 201.804 160.531C201.491 161.281 201.054 161.922 200.491 162.453C199.304 163.641 197.866 164.234 196.179 164.234Z" fill="#B485FF"/>
<path d="M236.726 183.281C233.632 183.281 230.694 182.703 227.913 181.547C225.163 180.359 222.726 178.703 220.601 176.578C218.476 174.484 216.819 172.047 215.632 169.266C214.444 166.484 213.851 163.547 213.851 160.453C213.851 157.359 214.444 154.422 215.632 151.641C216.819 148.828 218.476 146.359 220.601 144.234C222.726 142.109 225.163 140.469 227.913 139.312C230.694 138.125 233.632 137.531 236.726 137.531C239.788 137.531 242.694 138.109 245.444 139.266C248.226 140.422 250.663 142.047 252.757 144.141C254.851 146.203 256.491 148.609 257.679 151.359C258.897 154.109 259.538 157.016 259.601 160.078V176.906C259.601 178.688 258.991 180.188 257.772 181.406C257.179 182 256.491 182.453 255.71 182.766C254.929 183.109 254.101 183.281 253.226 183.281C252.069 183.281 251.038 183.031 250.132 182.531C249.257 182 248.538 181.266 247.976 180.328C244.444 182.297 240.694 183.281 236.726 183.281ZM236.726 170.766C238.132 170.766 239.476 170.5 240.757 169.969C242.038 169.438 243.147 168.703 244.085 167.766C245.054 166.797 245.804 165.688 246.335 164.438C246.866 163.188 247.132 161.859 247.132 160.453C247.132 159.047 246.866 157.719 246.335 156.469C245.804 155.219 245.054 154.109 244.085 153.141C243.147 152.203 242.038 151.469 240.757 150.938C239.476 150.406 238.132 150.141 236.726 150.141C235.351 150.141 234.022 150.406 232.741 150.938C231.491 151.469 230.397 152.203 229.46 153.141C228.491 154.109 227.726 155.219 227.163 156.469C226.632 157.719 226.366 159.047 226.366 160.453C226.366 161.859 226.632 163.188 227.163 164.438C227.726 165.688 228.491 166.797 229.46 167.766C230.397 168.703 231.491 169.438 232.741 169.969C234.022 170.5 235.351 170.766 236.726 170.766Z" fill="#B485FF"/>
<path d="M306.851 159.938C305.288 159.938 303.851 159.672 302.538 159.141C301.226 158.578 299.882 157.781 298.507 156.75L297.757 156.188C296.976 155.531 296.226 155.047 295.507 154.734C295.101 154.547 294.663 154.453 294.194 154.453C293.038 154.453 291.632 155.297 289.976 156.984L289.554 157.453C288.272 158.641 286.772 159.234 285.054 159.234C284.21 159.234 283.413 159.078 282.663 158.766C281.944 158.422 281.304 157.969 280.741 157.406C280.179 156.844 279.726 156.188 279.382 155.438C279.069 154.656 278.913 153.859 278.913 153.047C278.913 151.297 279.507 149.828 280.694 148.641L280.929 148.406C282.46 146.875 283.976 145.609 285.476 144.609C288.226 142.797 290.976 141.891 293.726 141.891C295.319 141.891 296.741 142.156 297.991 142.688C299.272 143.188 300.632 143.969 302.069 145.031C302.132 145.062 302.397 145.281 302.866 145.688C303.46 146.25 304.226 146.734 305.163 147.141C305.601 147.328 306.038 147.422 306.476 147.422C306.976 147.422 307.616 147.203 308.397 146.766C309.241 146.266 310.147 145.484 311.116 144.422C311.647 143.828 312.288 143.391 313.038 143.109C313.819 142.797 314.632 142.641 315.476 142.641C316.319 142.641 317.116 142.812 317.866 143.156C318.616 143.469 319.288 143.922 319.882 144.516C320.444 145.078 320.882 145.734 321.194 146.484C321.507 147.234 321.663 148 321.663 148.781C321.663 150.406 321.085 151.891 319.929 153.234L319.882 153.281L318.382 154.734C316.476 156.578 314.226 158.016 311.632 159.047C310.163 159.641 308.569 159.938 306.851 159.938Z" fill="#B485FF"/>
</svg>
